<svg xmlns="http://www.w3.org/2000/svg" xmlns:xlink="http://www.w3.org/1999/xlink" width="500" zoomAndPan="magnify" viewBox="0 0 375 374.999991" height="500" preserveAspectRatio="xMidYMid meet" version="1.0"><path fill="#000000" d="M 23.4375 21.09375 L 7.8125 21.09375 L 0 187.453125 L 7.8125 353.8125 L 23.4375 353.8125 L 29.6875 217.132812 L 91.40625 228.066406 L 91.40625 146.839844 L 29.6875 157.773438 Z M 23.4375 21.09375 " fill-opacity="1" fill-rule="nonzero"/><path fill="#000000" d="M 367.1875 21.09375 L 351.5625 21.09375 L 345.3125 157.773438 L 283.59375 146.839844 L 283.59375 228.066406 L 345.3125 217.132812 L 351.5625 353.8125 L 367.1875 353.8125 L 375 187.453125 Z M 367.1875 21.09375 " fill-opacity="1" fill-rule="nonzero"/><path fill="#000000" d="M 155.46875 94.511719 L 107.03125 128.875 L 107.03125 244.46875 L 155.46875 278.832031 L 220.3125 278.832031 L 268.75 244.46875 L 268.75 129.65625 L 220.3125 95.292969 L 155.46875 95.292969 Z M 235.9375 187.453125 C 235.9375 214.007812 214.0625 235.878906 187.5 235.878906 C 160.9375 235.878906 139.0625 214.007812 139.0625 187.453125 C 139.0625 160.898438 160.9375 139.027344 187.5 139.027344 C 214.0625 139.027344 235.9375 160.898438 235.9375 187.453125 Z M 235.9375 187.453125 " fill-opacity="1" fill-rule="nonzero"/><path fill="#000000" d="M 220.3125 187.453125 C 220.3125 188.527344 220.261719 189.597656 220.15625 190.667969 C 220.050781 191.738281 219.890625 192.800781 219.683594 193.851562 C 219.472656 194.90625 219.210938 195.949219 218.898438 196.976562 C 218.585938 198.003906 218.226562 199.015625 217.816406 200.007812 C 217.402344 201 216.945312 201.96875 216.4375 202.917969 C 215.929688 203.863281 215.378906 204.785156 214.78125 205.675781 C 214.1875 206.570312 213.546875 207.433594 212.863281 208.261719 C 212.183594 209.09375 211.460938 209.890625 210.703125 210.648438 C 209.941406 211.410156 209.148438 212.128906 208.316406 212.808594 C 207.484375 213.492188 206.625 214.132812 205.730469 214.726562 C 204.835938 215.324219 203.914062 215.875 202.96875 216.382812 C 202.019531 216.890625 201.050781 217.347656 200.058594 217.757812 C 199.0625 218.171875 198.054688 218.53125 197.023438 218.84375 C 195.996094 219.15625 194.957031 219.417969 193.902344 219.625 C 192.847656 219.835938 191.785156 219.992188 190.714844 220.097656 C 189.648438 220.203125 188.574219 220.257812 187.5 220.257812 C 186.425781 220.257812 185.351562 220.203125 184.285156 220.097656 C 183.214844 219.992188 182.152344 219.835938 181.097656 219.625 C 180.042969 219.417969 179.003906 219.15625 177.976562 218.84375 C 176.945312 218.53125 175.9375 218.171875 174.941406 217.757812 C 173.949219 217.347656 172.980469 216.890625 172.03125 216.382812 C 171.085938 215.875 170.164062 215.324219 169.269531 214.726562 C 168.375 214.132812 167.515625 213.492188 166.683594 212.808594 C 165.851562 212.128906 165.058594 211.410156 164.296875 210.648438 C 163.539062 209.890625 162.816406 209.09375 162.136719 208.261719 C 161.453125 207.433594 160.8125 206.570312 160.21875 205.675781 C 159.621094 204.785156 159.070312 203.863281 158.5625 202.917969 C 158.054688 201.96875 157.597656 201 157.183594 200.007812 C 156.773438 199.015625 156.414062 198.003906 156.101562 196.976562 C 155.789062 195.949219 155.527344 194.90625 155.316406 193.851562 C 155.109375 192.800781 154.949219 191.738281 154.84375 190.667969 C 154.738281 189.597656 154.6875 188.527344 154.6875 187.453125 C 154.6875 186.378906 154.738281 185.308594 154.84375 184.238281 C 154.949219 183.167969 155.109375 182.105469 155.316406 181.054688 C 155.527344 180 155.789062 178.957031 156.101562 177.929688 C 156.414062 176.902344 156.773438 175.890625 157.183594 174.898438 C 157.597656 173.90625 158.054688 172.9375 158.5625 171.988281 C 159.070312 171.042969 159.621094 170.121094 160.21875 169.230469 C 160.8125 168.335938 161.453125 167.472656 162.136719 166.644531 C 162.816406 165.8125 163.539062 165.015625 164.296875 164.257812 C 165.058594 163.496094 165.851562 162.777344 166.683594 162.097656 C 167.515625 161.414062 168.375 160.773438 169.269531 160.179688 C 170.164062 159.582031 171.085938 159.03125 172.03125 158.523438 C 172.980469 158.015625 173.949219 157.558594 174.941406 157.148438 C 175.9375 156.734375 176.945312 156.375 177.976562 156.0625 C 179.003906 155.75 180.042969 155.488281 181.097656 155.28125 C 182.152344 155.070312 183.214844 154.914062 184.285156 154.808594 C 185.351562 154.703125 186.425781 154.648438 187.5 154.648438 C 188.574219 154.648438 189.648438 154.703125 190.714844 154.808594 C 191.785156 154.914062 192.847656 155.070312 193.902344 155.28125 C 194.957031 155.488281 195.996094 155.75 197.023438 156.0625 C 198.054688 156.375 199.0625 156.734375 200.058594 157.148438 C 201.050781 157.558594 202.019531 158.015625 202.96875 158.523438 C 203.914062 159.03125 204.835938 159.582031 205.730469 160.179688 C 206.625 160.773438 207.484375 161.414062 208.316406 162.097656 C 209.148438 162.777344 209.941406 163.496094 210.703125 164.257812 C 211.460938 165.015625 212.183594 165.8125 212.863281 166.644531 C 213.546875 167.472656 214.183594 168.335938 214.78125 169.230469 C 215.378906 170.121094 215.929688 171.042969 216.4375 171.988281 C 216.945312 172.9375 217.402344 173.90625 217.816406 174.898438 C 218.226562 175.890625 218.585938 176.902344 218.898438 177.929688 C 219.210938 178.957031 219.472656 180 219.683594 181.054688 C 219.890625 182.105469 220.050781 183.167969 220.15625 184.238281 C 220.261719 185.308594 220.3125 186.378906 220.3125 187.453125 Z M 220.3125 187.453125 " fill-opacity="1" fill-rule="nonzero"/></svg>