<svg xmlns="http://www.w3.org/2000/svg" xmlns:xlink="http://www.w3.org/1999/xlink" width="500" zoomAndPan="magnify" viewBox="0 0 375 374.999991" height="500" preserveAspectRatio="xMidYMid meet" version="1.0"><defs><clipPath id="7b1f745986"><path d="M 265 91 L 363.46875 91 L 363.46875 327 L 265 327 Z M 265 91 " clip-rule="nonzero"/></clipPath><clipPath id="751c598c0c"><path d="M 11.71875 91 L 110 91 L 110 327 L 11.71875 327 Z M 11.71875 91 " clip-rule="nonzero"/></clipPath></defs><g clip-path="url(#7b1f745986)"><path fill="#000000" d="M 347.199219 225.058594 L 344.097656 139.875 L 353.398438 139.875 L 353.398438 107.351562 L 343.324219 107.351562 L 342.550781 91.867188 L 337.125 91.867188 L 337.125 107.351562 L 327.054688 107.351562 L 327.054688 139.875 L 335.578125 139.875 L 333.253906 225.058594 L 316.980469 225.058594 L 316.980469 242.09375 L 330.152344 242.09375 L 330.152344 251.386719 L 265.847656 251.386719 L 265.847656 326.5 L 330.152344 302.492188 L 330.152344 313.335938 L 349.523438 313.335938 L 349.523438 242.09375 L 363.46875 242.09375 L 363.46875 225.058594 Z M 347.199219 225.058594 " fill-opacity="1" fill-rule="nonzero"/></g><g clip-path="url(#751c598c0c)"><path fill="#000000" d="M 45.035156 242.09375 L 58.207031 242.09375 L 58.207031 225.058594 L 41.933594 225.058594 L 39.609375 139.875 L 48.132812 139.875 L 48.132812 107.351562 L 38.0625 107.351562 L 38.0625 91.867188 L 32.636719 91.867188 L 31.863281 107.351562 L 21.789062 107.351562 L 21.789062 139.875 L 31.089844 139.875 L 27.988281 225.058594 L 11.71875 225.058594 L 11.71875 242.09375 L 25.664062 242.09375 L 25.664062 313.335938 L 45.035156 313.335938 L 45.035156 301.71875 L 109.339844 326.5 L 109.339844 251.386719 L 45.035156 251.386719 Z M 45.035156 242.09375 " fill-opacity="1" fill-rule="nonzero"/></g><path fill="#000000" d="M 120.1875 251.386719 C 120.1875 295.523438 120.1875 331.144531 120.1875 372.960938 L 137.234375 372.960938 C 137.234375 321.851562 135.683594 352.828125 144.207031 235.898438 L 119.414062 235.898438 L 119.414062 251.386719 Z M 120.1875 251.386719 " fill-opacity="1" fill-rule="nonzero"/><path fill="#000000" d="M 237.179688 372.960938 L 254.226562 372.960938 C 254.226562 331.917969 254.226562 297.074219 254.226562 251.386719 L 254.226562 235.125 L 229.433594 235.125 C 239.503906 365.21875 237.179688 373.734375 237.179688 372.960938 Z M 237.179688 372.960938 " fill-opacity="1" fill-rule="nonzero"/><path fill="#000000" d="M 204.640625 43.855469 L 201.539062 1.265625 L 173.648438 1.265625 L 169.773438 45.402344 L 188.367188 27.59375 Z M 204.640625 43.855469 " fill-opacity="1" fill-rule="nonzero"/><path fill="#000000" d="M 206.964844 67.085938 L 188.367188 48.5 L 168.222656 68.632812 C 167.449219 77.152344 148.855469 331.917969 148.855469 331.144531 L 225.558594 331.144531 C 205.414062 48.5 206.964844 73.28125 206.964844 67.085938 Z M 180.621094 143.75 L 195.339844 143.75 L 201.539062 202.601562 L 187.59375 219.636719 C 193.015625 219.636719 196.890625 224.28125 196.890625 228.929688 C 196.890625 234.347656 192.242188 238.222656 187.59375 238.222656 C 182.945312 238.222656 178.296875 234.347656 178.296875 228.929688 C 178.296875 224.28125 182.171875 219.636719 187.59375 219.636719 L 173.648438 202.601562 Z M 187.59375 302.492188 C 176.746094 302.492188 168.222656 293.976562 168.222656 283.132812 C 168.222656 272.292969 176.746094 263.773438 187.59375 263.773438 C 198.441406 263.773438 206.964844 272.292969 206.964844 283.132812 C 206.964844 293.976562 198.441406 302.492188 187.59375 302.492188 Z M 187.59375 302.492188 " fill-opacity="1" fill-rule="nonzero"/></svg>