<svg xmlns="http://www.w3.org/2000/svg" xmlns:xlink="http://www.w3.org/1999/xlink" width="500" zoomAndPan="magnify" viewBox="0 0 375 374.999991" height="500" preserveAspectRatio="xMidYMid meet" version="1.0"><defs><clipPath id="d87a665ba1"><path d="M 31.027344 0.28125 L 371.988281 0.28125 L 371.988281 342 L 31.027344 342 Z M 31.027344 0.28125 " clip-rule="nonzero"/></clipPath><clipPath id="976c40f810"><path d="M 52 307.519531 L 119.984375 307.519531 L 119.984375 374.667969 L 52 374.667969 Z M 52 307.519531 " clip-rule="nonzero"/></clipPath></defs><g clip-path="url(#d87a665ba1)"><path fill="#58595b" d="M 199.523438 246.179688 C 214.421875 238.550781 230.292969 228.957031 246.21875 218.046875 C 252.542969 252.839844 242.765625 290.015625 216.832031 317.402344 C 216.503906 292.460938 210.53125 268.15625 199.523438 246.179688 Z M 142.296875 258.984375 C 128.816406 272.476562 107.515625 275.234375 96.734375 275.726562 C 97.203125 264.957031 99.933594 243.695312 113.480469 230.140625 C 119.511719 224.101562 125.824219 219.316406 131.851562 215.808594 L 156.621094 240.59375 C 153.113281 246.628906 148.332031 252.945312 142.296875 258.984375 Z M 55.097656 155.554688 C 82.46875 129.597656 119.617188 119.816406 154.382812 126.144531 C 143.484375 142.085938 133.894531 157.964844 126.273438 172.871094 C 104.3125 161.859375 80.027344 155.878906 55.097656 155.554688 Z M 355.101562 17.203125 C 357.222656 26.738281 361.351562 53.570312 350.355469 85.691406 L 286.648438 21.9375 C 318.621094 11.003906 345.5625 15.109375 355.101562 17.203125 Z M 179.578125 239.867188 C 178.773438 240.226562 177.96875 240.585938 177.179688 240.925781 L 174.050781 237.800781 L 131.519531 195.238281 C 131.859375 194.445312 132.21875 193.640625 132.578125 192.839844 C 134.445312 188.613281 136.507812 184.277344 138.761719 179.839844 C 146.828125 163.980469 157.246094 146.917969 169.167969 129.867188 C 172.003906 125.8125 174.921875 121.757812 177.910156 117.71875 C 193.050781 97.304688 210.0625 77.328125 227.492188 59.882812 C 241.230469 46.132812 256.277344 35.351562 272.265625 27.785156 L 344.511719 100.078125 C 336.945312 116.078125 326.171875 131.132812 312.433594 144.886719 C 295.003906 162.324219 275.035156 179.355469 254.640625 194.503906 C 250.605469 197.5 246.554688 200.417969 242.503906 203.253906 C 225.460938 215.183594 208.414062 225.613281 192.566406 233.675781 C 188.128906 235.933594 183.792969 238.003906 179.578125 239.867188 Z M 258.96875 209.039062 C 281.417969 192.699219 303.480469 174.082031 322.546875 155.007812 C 338.824219 138.71875 351.296875 120.664062 359.625 101.351562 C 380.960938 51.878906 368.332031 10.859375 367.785156 9.136719 C 367.082031 6.929688 365.351562 5.199219 363.140625 4.496094 C 361.417969 3.949219 320.433594 -8.691406 270.992188 12.660156 C 251.695312 20.992188 233.65625 33.476562 217.382812 49.765625 C 198.316406 68.839844 179.71875 90.917969 163.390625 113.386719 C 121.414062 103.523438 75.417969 114.921875 42.753906 147.609375 C 39.316406 151.054688 35.941406 154.863281 32.722656 158.9375 C 30.949219 161.183594 30.683594 164.269531 32.046875 166.785156 C 33.414062 169.296875 36.140625 170.761719 38.988281 170.496094 C 67.335938 167.871094 95.316406 173.320312 120.0625 185.773438 C 118.769531 188.648438 117.5625 191.472656 116.449219 194.238281 C 115.378906 196.902344 116 199.941406 118.023438 201.96875 L 121.398438 205.34375 C 115.308594 209.261719 109.214844 214.167969 103.367188 220.023438 C 80.183594 243.21875 82.328125 281.730469 82.429688 283.359375 C 82.546875 285.160156 83.316406 286.777344 84.511719 287.96875 C 85.707031 289.164062 87.320312 289.941406 89.117188 290.050781 C 90.746094 290.152344 129.234375 292.296875 152.414062 269.101562 C 158.257812 263.253906 163.164062 257.152344 167.082031 251.0625 L 170.449219 254.433594 C 172.476562 256.464844 175.515625 257.082031 178.175781 256.007812 C 180.9375 254.898438 183.761719 253.6875 186.632812 252.390625 C 199.078125 277.15625 204.519531 305.160156 201.902344 333.523438 C 201.699219 335.675781 202.480469 337.765625 203.960938 339.246094 C 204.441406 339.722656 204.996094 340.140625 205.609375 340.472656 C 208.121094 341.835938 211.207031 341.574219 213.453125 339.796875 C 217.523438 336.578125 221.332031 333.195312 224.769531 329.757812 C 257.433594 297.074219 268.828125 251.042969 258.96875 209.039062 " fill-opacity="1" fill-rule="nonzero"/></g><path fill="#58595b" d="M 240.972656 131.394531 C 232.425781 122.839844 232.425781 108.917969 240.972656 100.363281 C 249.527344 91.804688 263.433594 91.804688 271.984375 100.363281 C 280.535156 108.917969 280.535156 122.839844 271.984375 131.394531 C 263.433594 139.949219 249.527344 139.949219 240.972656 131.394531 Z M 282.097656 90.238281 C 267.972656 76.105469 244.988281 76.105469 230.863281 90.238281 C 216.738281 104.378906 216.738281 127.378906 230.863281 141.511719 C 244.988281 155.644531 267.972656 155.644531 282.097656 141.511719 C 296.222656 127.378906 296.222656 104.378906 282.097656 90.238281 " fill-opacity="1" fill-rule="nonzero"/><path fill="#58595b" d="M 69.070312 303.421875 C 66.277344 300.628906 61.75 300.628906 58.957031 303.421875 L 6.375 356.042969 C 3.582031 358.835938 3.582031 363.367188 6.375 366.160156 C 9.167969 368.957031 13.695312 368.957031 16.488281 366.160156 L 69.070312 313.539062 C 71.863281 310.746094 71.863281 306.214844 69.070312 303.421875 " fill-opacity="1" fill-rule="nonzero"/><path fill="#58595b" d="M 87.269531 192.109375 C 84.480469 189.3125 79.953125 189.3125 77.160156 192.109375 L 24.578125 244.730469 C 21.785156 247.523438 21.785156 252.058594 24.578125 254.847656 C 27.371094 257.640625 31.894531 257.648438 34.6875 254.847656 L 87.269531 202.226562 C 90.0625 199.4375 90.0625 194.902344 87.269531 192.109375 " fill-opacity="1" fill-rule="nonzero"/><path fill="#58595b" d="M 65.4375 257.960938 C 62.648438 255.164062 58.117188 255.164062 55.328125 257.960938 L 2.746094 310.582031 C -0.046875 313.375 -0.046875 317.910156 2.746094 320.699219 C 5.535156 323.492188 10.0625 323.492188 12.855469 320.699219 L 65.4375 268.078125 C 68.230469 265.285156 68.230469 260.753906 65.4375 257.960938 " fill-opacity="1" fill-rule="nonzero"/><path fill="#58595b" d="M 183.074219 287.980469 C 180.28125 285.1875 175.753906 285.1875 172.960938 287.980469 L 120.378906 340.601562 C 117.585938 343.394531 117.585938 347.929688 120.378906 350.71875 C 123.171875 353.515625 127.699219 353.515625 130.492188 350.71875 L 183.074219 298.105469 C 185.867188 295.308594 185.867188 290.777344 183.074219 287.980469 " fill-opacity="1" fill-rule="nonzero"/><g clip-path="url(#976c40f810)"><path fill="#58595b" d="M 117.269531 309.828125 C 114.480469 307.035156 109.949219 307.035156 107.160156 309.828125 L 54.578125 362.449219 C 51.785156 365.246094 51.785156 369.777344 54.578125 372.570312 C 57.367188 375.367188 61.898438 375.367188 64.691406 372.570312 L 117.269531 319.953125 C 120.0625 317.15625 120.0625 312.625 117.269531 309.828125 " fill-opacity="1" fill-rule="nonzero"/></g></svg>